<svg xmlns="http://www.w3.org/2000/svg" viewBox="0 0 103.55 43.8"><defs><style>.a{fill:#fff;}.b{fill:#ff9800;}</style></defs><title>DIGlogo</title><path class="a" d="M17.18,29.44V47.58H23q9.14,0,13.32-3.71t4.17-11q0-7.34-4.14-10.87T23.05,18.49H9.91V11.22H23.34a44.83,44.83,0,0,1,11,1.19A18.43,18.43,0,0,1,42,16.19a15.55,15.55,0,0,1,4.43,6.69,30.2,30.2,0,0,1,1.44,9.94q0,11.31-6,16.67T23.26,54.85H9.91V29.44Z" transform="translate(-9.91 -11.05)"/><path class="a" d="M106.16,29.27V47.41h-5.8q-9.14,0-13.31-3.7t-4.18-11q0-7.35,4.14-10.88t13.28-3.52h13.17V11.05H100a44.71,44.71,0,0,0-11,1.19A18.41,18.41,0,0,0,81.39,16,15.42,15.42,0,0,0,77,22.72a30.14,30.14,0,0,0-1.44,9.93q0,11.31,6,16.67t18.58,5.37h13.35V29.27Z" transform="translate(-9.91 -11.05)"/><polygon class="b" points="48.09 8.33 48.09 16.82 48.09 26.88 48.09 35.3 55.43 35.3 55.43 26.88 55.43 16.82 55.43 8.33 48.09 8.33"/></svg>